<svg width="40" height="40" viewBox="0 0 40 40" fill="none" xmlns="http://www.w3.org/2000/svg">
<path d="M6 24V30C6 33.314 12.268 36 20 36C27.732 36 34 33.314 34 30V24C34 27.314 27.732 30 20 30C12.268 30 6 27.314 6 24Z" fill="#563BFF"/>
<path d="M6 14V20C6 23.314 12.268 26 20 26C27.732 26 34 23.314 34 20V14C34 17.314 27.732 20 20 20C12.268 20 6 17.314 6 14Z" fill="#563BFF"/>
<path d="M34 10C34 13.314 27.732 16 20 16C12.268 16 6 13.314 6 10C6 6.686 12.268 4 20 4C27.732 4 34 6.686 34 10Z" fill="#563BFF"/>
</svg>
