<svg width="124" height="124" viewBox="0 0 124 124" fill="none" xmlns="http://www.w3.org/2000/svg">
<path fill-rule="evenodd" clip-rule="evenodd" d="M118.377 38.9922C129.183 25.4844 122.652 5.38594 106.086 1.14063C101.544 -0.0171859 96.675 0.160945 92.2812 1.61563C89.4906 2.56563 87.4718 3.69375 84.7703 5.89063C83.5828 6.84063 65.8594 24.4156 45.3156 44.9594L8.02812 82.3359L7.58281 84.4141C7.21928 86.1009 6.87266 87.7084 6.54228 89.2406L6.54191 89.2427C0.421367 117.626 -0.118489 120.129 0.888897 121.47C0.98637 121.6 1.09825 121.719 1.22099 121.849C1.29899 121.932 1.38133 122.019 1.46714 122.117C2.53593 123.334 4.04997 123.869 5.7125 123.661C6.60313 123.542 34.8953 117.516 40.9219 116.18C41.7234 115.972 115.912 42.0797 118.377 38.9922ZM97.2094 10.1063C96.4375 10.2547 94.8937 10.7594 93.825 11.2641C92.1328 12.0063 91.0937 12.8969 85.9281 18.0625L79.9609 24L90.0547 34.0938L100.148 44.2172L105.848 38.3984C110.747 33.4109 111.727 32.2531 112.617 30.4422C114.012 27.5328 114.487 24.6828 114.012 21.8328C112.617 13.7875 105.195 8.5625 97.2094 10.1063ZM16.6375 87.3828L44.8703 59.0906L73.1328 30.8282L83.2265 40.9219L93.3203 51.0157L82.6328 61.7328C76.7546 67.611 63.989 80.2875 54.2812 89.9063L36.5875 107.363L24.0296 110.064C17.1125 111.548 11.4125 112.736 11.3531 112.677C11.3234 112.647 12.4812 106.917 13.9656 100L16.6375 87.3828Z" fill="black"/>
</svg>
