<svg width="40" height="40" viewBox="0 0 40 40" fill="none" xmlns="http://www.w3.org/2000/svg">
<path fill-rule="evenodd" clip-rule="evenodd" d="M8 6C6.93913 6 5.92172 6.42143 5.17157 7.17157C4.42143 7.92172 4 8.93913 4 10V30C4 31.0609 4.42143 32.0783 5.17157 32.8284C5.92172 33.5786 6.93913 34 8 34H32C33.0609 34 34.0783 33.5786 34.8284 32.8284C35.5786 32.0783 36 31.0609 36 30V10C36 8.93913 35.5786 7.92172 34.8284 7.17157C34.0783 6.42143 33.0609 6 32 6H8ZM32 30H8L16 14L22 26L26 18L32 30Z" fill="#563BFF"/>
</svg>
