<svg width="23" height="23" viewBox="0 0 23 23" fill="none" xmlns="http://www.w3.org/2000/svg">
<path d="M11.5001 20.6031C16.793 20.6031 21.0834 16.5169 21.0834 11.4761C21.0834 6.43527 16.793 2.34912 11.5001 2.34912C6.20721 2.34912 1.91675 6.43527 1.91675 11.4761C1.91675 16.5169 6.20721 20.6031 11.5001 20.6031Z" stroke="#563BFF" stroke-width="2" stroke-linejoin="round"/>
<path d="M11.5002 16.4959C13.896 16.4959 14.8543 14.6705 14.8543 14.6705H8.146C8.146 14.6705 9.10433 16.4959 11.5002 16.4959Z" stroke="#563BFF" stroke-width="2" stroke-linecap="round" stroke-linejoin="round"/>
<path d="M10.0626 10.107C10.0626 10.107 9.58341 8.28162 8.14591 8.28162C6.70841 8.28162 6.22925 10.107 6.22925 10.107" stroke="#563BFF" stroke-width="2" stroke-linecap="round" stroke-linejoin="round"/>
<path d="M16.7708 10.107C16.7708 10.107 16.2917 8.28162 14.8542 8.28162C13.4167 8.28162 12.9375 10.107 12.9375 10.107" stroke="#563BFF" stroke-width="2" stroke-linecap="round" stroke-linejoin="round"/>
</svg>
