<svg width="25" height="25" viewBox="0 0 25 25" fill="none" xmlns="http://www.w3.org/2000/svg">
<path d="M22.6562 12.5H18.75V9.375C18.75 7.65137 20.1514 6.25 21.875 6.25H22.2656C22.915 6.25 23.4375 5.72754 23.4375 5.07812V2.73438C23.4375 2.08496 22.915 1.5625 22.2656 1.5625H21.875C17.5586 1.5625 14.0625 5.05859 14.0625 9.375V21.0938C14.0625 22.3877 15.1123 23.4375 16.4062 23.4375H22.6562C23.9502 23.4375 25 22.3877 25 21.0938V14.8438C25 13.5498 23.9502 12.5 22.6562 12.5ZM8.59375 12.5H4.6875V9.375C4.6875 7.65137 6.08887 6.25 7.8125 6.25H8.20312C8.85254 6.25 9.375 5.72754 9.375 5.07812V2.73438C9.375 2.08496 8.85254 1.5625 8.20312 1.5625H7.8125C3.49609 1.5625 0 5.05859 0 9.375V21.0938C0 22.3877 1.0498 23.4375 2.34375 23.4375H8.59375C9.8877 23.4375 10.9375 22.3877 10.9375 21.0938V14.8438C10.9375 13.5498 9.8877 12.5 8.59375 12.5Z" fill="#563BFF"/>
</svg>
