<svg width="23" height="23" viewBox="0 0 23 23" fill="none" xmlns="http://www.w3.org/2000/svg">
<path d="M11.5001 20.6031C16.793 20.6031 21.0834 16.5169 21.0834 11.4761C21.0834 6.43527 16.793 2.34912 11.5001 2.34912C6.20721 2.34912 1.91675 6.43527 1.91675 11.4761C1.91675 16.5169 6.20721 20.6031 11.5001 20.6031Z" stroke="#563BFF" stroke-width="2" stroke-linejoin="round"/>
<path d="M14.8542 8.73804V9.19439" stroke="#563BFF" stroke-width="2" stroke-linecap="round" stroke-linejoin="round"/>
<path d="M8.146 8.73804V9.19439" stroke="#563BFF" stroke-width="2" stroke-linecap="round" stroke-linejoin="round"/>
<path d="M13.4168 13.3015C13.4168 12.2933 12.5587 11.4761 11.5002 11.4761C10.4416 11.4761 9.5835 12.2933 9.5835 13.3015V15.1269C9.5835 16.135 10.4416 16.9523 11.5002 16.9523C12.5587 16.9523 13.4168 16.135 13.4168 15.1269V13.3015Z" stroke="#563BFF" stroke-width="2" stroke-linecap="round" stroke-linejoin="round"/>
</svg>
